<svg width="32" height="32" viewBox="0 0 32 32" fill="none" xmlns="http://www.w3.org/2000/svg">
<rect width="32" height="32" rx="8" fill="#4F7EF7"/>
<circle cx="9" cy="16" r="4" fill="white"/>
<path d="M22.4673 12.0026C22.6173 12.0105 22.7671 12.0415 22.9126 12.0963C22.9388 12.1061 22.9651 12.1153 22.9907 12.1266C22.9997 12.1305 23.0083 12.1351 23.0171 12.1393C23.0949 12.1752 23.1705 12.2169 23.2417 12.2662L23.2613 12.2809C23.2688 12.2863 23.2753 12.2929 23.2827 12.2985C23.3117 12.32 23.3402 12.342 23.3677 12.3658C23.387 12.3825 23.4051 12.4001 23.4234 12.4176C23.4404 12.434 23.4578 12.4501 23.4741 12.4674C23.4862 12.4801 23.4977 12.4933 23.5093 12.5065C23.5295 12.5294 23.5499 12.5524 23.5689 12.5768C23.593 12.6077 23.6148 12.64 23.6363 12.6725C23.6417 12.6808 23.6485 12.6884 23.6538 12.6969L26.7613 17.6022C27.2044 18.302 26.9961 19.2291 26.2964 19.6725C25.5967 20.1155 24.6703 19.9073 24.2271 19.2076L22.4507 16.4039L20.8013 19.2848C20.3895 20.0033 19.4731 20.2521 18.7544 19.8404C18.0357 19.4285 17.787 18.5114 18.1988 17.7926L21.0855 12.7535C21.0967 12.734 21.1097 12.7157 21.1216 12.6969C21.1612 12.6344 21.2043 12.5739 21.2534 12.5172C21.2701 12.4979 21.2877 12.4798 21.3052 12.4615C21.3216 12.4445 21.3377 12.4271 21.355 12.4108C21.3784 12.3886 21.4027 12.3677 21.4273 12.3473C21.4397 12.337 21.4516 12.326 21.4644 12.316C21.4953 12.292 21.5276 12.2701 21.5601 12.2486C21.5682 12.2433 21.5763 12.2373 21.5845 12.232C21.5859 12.2312 21.587 12.23 21.5884 12.2291C21.6633 12.1821 21.7424 12.1429 21.8238 12.11C21.8583 12.0959 21.8931 12.0832 21.9282 12.0719C21.9967 12.0499 22.0663 12.0312 22.1372 12.0192C22.2469 12.0007 22.3577 11.9966 22.4673 12.0026Z" fill="white"/>
</svg>
